<svg height="511pt" viewBox="1 0 511.999 511" width="511pt" xmlns="http://www.w3.org/2000/svg"><path d="m164.742188 341.679688h77.464843v30.183593h-77.464843zm0 0"/><path d="m272.207031 341.679688h77.464844v30.183593h-77.464844zm0 0"/><path d="m272.207031 401.863281h77.464844v30.179688h-77.464844zm0 0"/><path d="m164.742188 401.863281h77.464843v30.179688h-77.464843zm0 0"/><path d="m164.742188 273.648438h77.464843v38.03125h-77.464843zm0 0"/><path d="m379.671875 401.863281v30.179688h90.507813l2.507812-30.179688zm0 0"/><path d="m134.742188 341.679688h-100.09375l2.625 30.183593h97.46875zm0 0"/><path d="m134.742188 401.863281h-94.863282l2.625 30.179688h92.238282zm0 0"/><path d="m379.671875 462.042969v50.183593h5.402344c21.460937 0 41.972656-8.039062 57.757812-22.640624 8.484375-7.84375 15.179688-17.21875 19.851563-27.542969zm0 0"/><path d="m134.742188 311.679688v-38.03125h-106.007813l3.304687 38.03125zm0 0"/><path d="m134.742188 462.042969h-84.734376c4.695313 10.375 11.4375 19.792969 19.976563 27.660156 15.769531 14.523437 36.234375 22.523437 57.632813 22.523437h7.125zm0 0"/><path d="m164.742188 462.042969h77.464843v50.183593h-77.464843zm0 0"/><path d="m379.671875 311.679688h100.5l3.15625-38.03125h-103.65625zm0 0"/><path d="m379.671875 371.863281h95.503906l2.503907-30.183593h-98.007813zm0 0"/><path d="m272.207031 462.042969h77.464844v50.183593h-77.464844zm0 0"/><path d="m272.207031 273.648438h77.464844v38.03125h-77.464844zm0 0"/><path d="m487.921875 162.5h-463.84375c-13.296875 0-24.078125 11.898438-24.078125 26.574219v28c0 14.675781 10.78125 26.574219 24.078125 26.574219h463.84375c13.296875 0 24.078125-11.898438 24.078125-26.574219v-28c0-14.675781-10.78125-26.574219-24.078125-26.574219zm0 0"/><path d="m129.886719 76.84375c0-12.914062 9.941406-23.585938 22.140625-23.789062.113281-.003907 199.90625-.003907 199.964844-.003907 12.207031.214844 22.140624 10.890625 22.140624 23.792969v55.65625h50.003907v-68.507812c0-35.011719-32.601563-63.492188-72.667969-63.492188h-198.917969c-40.066406 0-72.664062 28.484375-72.664062 63.492188v68.507812h50zm0 0"/></svg>