<svg height="383pt" viewBox="0 -8 383.9917 383" width="383pt" xmlns="http://www.w3.org/2000/svg"><path d="m224 200.484375c0 13.257813-10.746094 24-24 24s-24-10.742187-24-24c0-13.253906 10.746094-24 24-24s24 10.746094 24 24zm0 0"/><path d="m101.214844 70.339844c-11.644532-2.472656-21.570313-10.035156-27.046875-20.605469l-56.046875 14.191406c-10.660156 2.695313-18.12500025 12.285157-18.121094 23.28125.0078125 2.007813.253906 4.007813.734375 5.957031 3.28125 12.800782 16.3125 20.519532 29.113281 17.25l7.832032-1.9375c4.277343-1.058593 8.601562 1.539063 9.679687 5.808594l24.472656 97zm-45.214844 10.144531h16v16h-16zm0 0"/><path d="m110 362.527344c1.105469 4.230468 5.40625 6.789062 9.65625 5.742187l35.199219-8.886719-48.207031-10.058593zm0 0"/><path d="m295.519531 18.605469c-3.296875-12.820313-16.316406-20.589844-29.167969-17.398438l-47.375 12 76.710938 16c.753906-3.5.695312-7.125-.167969-10.601562zm0 0"/><path d="m319.558594 277.367188-8.910156 42.703124 10.757812-2.703124c4.265625-1.085938 6.855469-5.410157 5.792969-9.679688zm0 0"/><path d="m380.070312 70.300781c-3.476562-5.34375-8.953124-9.070312-15.199218-10.351562l-250.589844-52.261719c-12.976562-2.707031-25.6875 5.621094-28.394531 18.597656-2.703125 12.976563 5.625 25.6875 18.601562 28.394532l7.824219 1.597656c4.320312.90625 7.09375 5.140625 6.191406 9.464844l-52.246094 250.648437c-.4375 2.078125-.027343 4.246094 1.136719 6.023437 1.164063 1.777344 2.988281 3.015626 5.070313 3.449219l203.613281 42.453125c4.316406.851563 8.523437-1.902344 9.464844-6.199218l52.265625-250.617188c.90625-4.316406 5.136718-7.085938 9.457031-6.191406l7.832031 1.601562c9.5 1.980469 19.257813-1.957031 24.726563-9.976562 5.464843-8.019532 5.5625-18.542969.246093-26.664063zm-236.070312-29.816406h16v16h-16zm-24 264h-16v-16h16zm144 32h-16v-16h16zm32-104c-1.179688 36.417969-31.578125 65.027344-68 64-20.421875.117187-39.871094-8.726563-53.207031-24.191406-39.378907-2.277344-70.792969-30.207031-70.792969-63.808594 1.195312-25.820313 17.796875-48.394531 42.089844-57.230469-1.382813-4.800781-2.085938-9.773437-2.089844-14.769531 0-35.285156 34.097656-64 76-64s76 28.714844 76 64c-.335938 18.589844-9.335938 35.957031-24.335938 46.945313 15.21875 11.742187 24.191407 29.832031 24.335938 49.054687zm16-152h-16v-16h16zm0 0"/><path d="m253.183594 176.398438c15.671875-7.273438 26.007812-22.652344 26.816406-39.914063 0-26.46875-26.910156-48-60-48s-60 21.53125-60 48c.03125 5.617187 1.269531 11.160156 3.632812 16.257813.945313 2.09375.945313 4.496093 0 6.589843-.945312 2.09375-2.746093 3.679688-4.945312 4.355469-23.144531 7.078125-38.6875 25.078125-38.6875 44.796875 0 25.960937 26.398438 47.472656 58.871094 47.945313 2.480468.03125 4.808594 1.214843 6.296875 3.199218 10.214843 13.289063 26.074219 21.011719 42.832031 20.855469 27.585938 1.03125 50.820312-20.417969 52-48-.316406-17.878906-10.632812-34.074219-26.703125-41.917969-2.644531-1.363281-4.316406-4.078125-4.339844-7.050781-.023437-2.972656 1.605469-5.714844 4.226563-7.117187zm-53.183594 64.085937c-22.089844 0-40-17.90625-40-40 0-22.089844 17.910156-40 40-40s40 17.910156 40 40c-.027344 22.082031-17.917969 39.976563-40 40zm0 0"/></svg>