<svg height="464pt" viewBox="0 -17 464 464" width="464pt" xmlns="http://www.w3.org/2000/svg"><path d="m105.078125 369.265625-36.390625 36.390625h-36.6875v16h40c2.121094 0 4.15625-.84375 5.65625-2.34375l38.824219-38.824219zm0 0"/><path d="m359.871094 89.097656 35.441406-35.441406h36.6875v-16h-40c-2.121094 0-4.15625.84375-5.65625 2.34375l-40.582031 40.585938zm0 0"/><path d="m0 405.65625h16v16h-16zm0 0"/><path d="m448 37.65625h16v16h-16zm0 0"/><path d="m312 301.65625v-24c0-2.953125 1.625-5.664062 4.226562-7.054688 2.601563-1.394531 5.757813-1.238281 8.214844.398438l37.070313 24.71875 13.191406-29.414062c11.34375-25.292969 17.238281-52.6875 17.296875-80.410157-.011719-17.300781-4.050781-34.363281-11.792969-49.839843-7.222656-14.46875-18.191406-26.734376-31.765625-35.519532l-38.785156 38.785156-11.3125-11.3125 35.257812-35.265624c-30.625-12.808594-65.800781-7.886719-91.730468 12.84375l-9.871094 7.910156v-11.273438c-.089844-34.113281 13.46875-66.851562 37.65625-90.910156l-11.3125-11.3125c-27.199219 27.054688-42.445312 63.863281-42.34375 102.222656v11.273438l-9.878906-7.921875c-16.152344-12.867188-36.1875-19.890625-56.839844-19.917969-30.238281-.113281-58.527344 14.898438-75.386719 40h78.105469c13.253906 0 24 10.746094 24 24v96c0 13.253906-10.746094 24-24 24h-16v24c0 2.949219-1.625 5.664062-4.226562 7.054688-2.601563 1.390624-5.757813 1.238281-8.214844-.398438l-45.957032-30.65625h-2.769531l34.089844 75.917969c2.027344 4.386719 4.574219 8.511719 7.582031 12.289062l37.863282-37.863281 11.3125 11.3125-37.777344 37.777344c16.019531 12.292968 37.101562 15.835937 56.257812 9.445312l37.335938-12.464844c1.640625-.558593 3.417968-.558593 5.054687 0l37.359375 12.480469c2.644532.875 5.347656 1.5625 8.089844 2.058594v-54.953125c0-13.253906 10.746094-24 24-24zm0 0"/><path d="m84.441406 255 35.558594 23.703125v-17.046875c0-4.417969 3.582031-8 8-8h24c4.417969 0 8-3.582031 8-8v-96c0-4.417969-3.582031-8-8-8h-144c-4.417969 0-8 3.582031-8 8v96c0 4.417969 3.582031 8 8 8h72c1.578125.003906 3.125.46875 4.441406 1.34375zm-20.441406-97.34375h80v16h-80zm-32 0h16v16h-16zm-16 32h128v16h-128zm0 32h96v16h-96zm0 0"/><path d="m440 317.65625h-72c-1.578125-.003906-3.125-.46875-4.441406-1.34375l-35.558594-23.703125v17.046875c0 4.417969-3.582031 8-8 8h-24c-4.417969 0-8 3.582031-8 8v96c0 4.417969 3.582031 8 8 8h144c4.417969 0 8-3.582031 8-8v-96c0-4.417969-3.582031-8-8-8zm-120 16h16v16h-16zm80 80h-96v-16h96zm32-32h-128v-16h128zm0-32h-80v-16h80zm0 0"/><path d="m219.398438 61.089844c-3.902344-28.53125-26.335938-50.960938-54.863282-54.867188 3.902344 28.53125 26.335938 50.960938 54.863282 54.867188zm0 0"/></svg>